<svg xmlns="http://www.w3.org/2000/svg" width="24" height="24" fill="none" viewBox="0 0 24 24">
  <path fill="#fff" fill-rule="evenodd" d="M19.865 17.2c-.13-.12-.227-.245-.26-.36-.131-.457.041-1.785.3-2.2.258-.416-.028-1.665-.112-1.872-.087-.208-.116-.477-.412-.396-.298.084-.968.053-1.573-.072-.607-.123-1.136-.708-1.257-1.367-.135-.74-.135-1.457.038-1.908.193-.506.669-.697 1.104-.936.2-.11 1.171-.264 1.135-.731-.226-.43-2.286.06-2.369-.61-.083-.67-.113-1.005.149-1.544.274-.562-.042-.487-.117-1.168-.01-.097.204-.348.221-.436a9.92 9.92 0 0 1 1.978 1.463c1.877 1.804 2.91 4.202 2.91 6.752a9.21 9.21 0 0 1-1.735 5.385Zm-4.421-.303c-.41.65-.312 1.13-1.246 1.627-.52.277-.891.356-1.167 1.1-.276.744-.735.718-1.88 1.322-1.146.605-1.602 0-1.695-.465-.093-.464.19-1.56.19-1.56s.112-.328-.7-.698c-2.055-.936-.283-4.22-.283-4.22-.464-.543-1.642-1.609-3.288-1.958C3.8 11.712 3.353 10.789 2.8 9.867a9.61 9.61 0 0 1 2.51-4.548C7.105 3.498 9.49 2.4 12.03 2.4c0 0 .857 0 1.666.212-.74.815-1.567 1.638-2.182 1.864-1.107.412-1.62 1.085-1.624 1.802-.003.372.767 1.045.767 1.897 0 1.449-1.063 1.482-1.187.872-.28-1.384-1.35-1.027-2.632-.888-1.283.14-2.061 1.651-1.237 2.256.826.604.783-.191 1.101-.418.316-.228.54-.317.78 0 .237.317.754.49.704 1.14-.043.65-.182 1.208.69 1.208.871 0 .901.194 1.454.473.547.279 1.066.226 1.522.32.459.092 1.06.99 1.06.99 1.3.426 1.727.6 2.086.963.358.362.86 1.155.445 1.806ZM11.999 0h-.007C7.232 0 3.13 2.781 1.19 6.8A11.918 11.918 0 0 0 0 12c0 6.626 5.365 12 11.994 12H12c6.626 0 12-5.374 12-11.998C24 5.314 18.547 0 11.999 0Z" clip-rule="evenodd"/>
</svg>
